<?xml version="1.0" encoding="UTF-8" standalone="no"?>
<!-- Created with Inkscape (http://www.inkscape.org/) -->
<svg xmlns:inkscape="http://www.inkscape.org/namespaces/inkscape"
  xmlns:rdf="http://www.w3.org/1999/02/22-rdf-syntax-ns#" xmlns="http://www.w3.org/2000/svg"
  xmlns:cc="http://creativecommons.org/ns#" xmlns:dc="http://purl.org/dc/elements/1.1/"
  xmlns:sodipodi="http://sodipodi.sourceforge.net/DTD/sodipodi-0.dtd" xmlns:svg="http://www.w3.org/2000/svg"
  xmlns:ns1="http://sozi.baierouge.fr" xmlns:xlink="http://www.w3.org/1999/xlink" id="svg2"
  sodipodi:docname="Firefighter.svg" viewBox="0 0 300.07 318.01" sodipodi:version="0.32" version="1.0"
  inkscape:output_extension="org.inkscape.output.svg.inkscape" inkscape:version="0.46">
  <sodipodi:namedview id="base" bordercolor="#666666" inkscape:pageshadow="2" guidetolerance="10.0" pagecolor="#ffffff"
    gridtolerance="10.0" inkscape:zoom="0.79228487" objecttolerance="10.0" borderopacity="1.0"
    inkscape:current-layer="svg2" inkscape:cx="268.08276" inkscape:cy="211.18576" inkscape:window-height="480"
    showgrid="false" inkscape:pageopacity="0.0" inkscape:window-width="640" />
  <path id="path2471" sodipodi:nodetypes="cccsccsccssscccccccccccccccccccccccscccccccccccccc"
    style="fill-rule:evenodd;stroke:#000000;stroke-width:.78636px;fill:#1C3B64"
    d="m211.24 0.39446c-6.35-0.0748-13.46 3.1359-18.41 6.6349-11.86 5.4506-27.2 15.409-33.35 9.5546-1.41-2.002-3.11-2.784-4.25-3.067-2.62-0.653-7.43 2.724-12.85 11.378-35.41 9.451-62.128 46.102-61.474 97.075-52.226 26.27-80.474 78.73-80.512 82.17-0.13428 11.85 33.913-17.07 93.577-44.88 0.386 1.55 0.786 3.11 1.204 4.67 0.304 5.1 0.943 8.18 1.725 10.41 0.414 1.18 1.862-1.85 2.328-0.99 0.445 0.83-0.092 5.56 0.349 6.41 0.453 0.87 0.633 5.55 1.033 6.75l5.64-6.47-7.073 16.14-19.115-7.35c-6.689 6.77-14.891 10.49-14.007 32.41-0.581 6.25-0.644 14.31-14.007 46.44 44.544-23 70.832 0.16 120.38 37.38 10.64 11.31 26.81 11.5 42.57 12.56-1.62-24.45-14.68-42.21-31.51-57.78-1.83-2.81-2.36-6.49 1.38-13.02 3.39-2.06 5.09-7.5 6.63-13.24l20.5 2.81c17.6 5.77 32.59-10.97 19.9-21.66l4.8-12.14-5.04-3.71 3.66-2.17c6.53-1.58 7.98-9.94 0.25-16.48l10.32-1.26c6.56-2.03 6.47-7.95 3.41-12.58l-10.15-13.1c0.18-1.6-6.76-7.97-11.06-12.55 3.87-5.32 4.38-7.28 5.58-9.93-0.33-2.34-0.71-4.79-1.13-7.28 39.22-0.84 67.36 9.13 67.14 4.75-0.21-4.22-25.12-12.48-61.53-15.02 3.81-13.372 2.59-31.828-6.22-86.768-0.04-0.693 3.9 0.011 3.36-0.344-0.11-5.476-3.3-9.545-6.58-13.565l-5.43-4.6689c-2.62-5.4257-7.1-7.4615-12.04-7.5196zm6.51 19.143l11.55 4.989-9.95 0.491c-1.16 0.058 3.89 0.758 3.95 1.917 6.66 21.019-0.23 26.715-4.17 35.755-5.09-10.479-11.7-19.726-20.35-26.589-0.59-4.867 1.34-8.144 3.61-11.205 5.04-3.381 10.2-4.357 15.36-5.358z" />
  <metadata>
    <rdf:RDF>
      <cc:Work>
        <dc:format>image/svg+xml</dc:format>
        <dc:type rdf:resource="http://purl.org/dc/dcmitype/StillImage" />
        <cc:license rdf:resource="http://creativecommons.org/licenses/publicdomain/" />
        <dc:publisher>
          <cc:Agent rdf:about="http://openclipart.org/">
            <dc:title>Openclipart</dc:title>
          </cc:Agent>
        </dc:publisher>
        <dc:title>Firefighter Profile Silhouette</dc:title>
        <dc:date>2011-09-03T10:04:56</dc:date>
        <dc:description>Firefighter Profile</dc:description>
        <dc:source>https://openclipart.org/detail/159025/firefighter-profile-silhouette-by-studio_hades</dc:source>
        <dc:creator>
          <cc:Agent>
            <dc:title>studio_hades</dc:title>
          </cc:Agent>
        </dc:creator>
        <dc:subject>
          <rdf:Bag>
            <rdf:li>911</rdf:li>
            <rdf:li>Emergency Responder</rdf:li>
            <rdf:li>Firefighter</rdf:li>
            <rdf:li>Fireman</rdf:li>
            <rdf:li>Helmet</rdf:li>
            <rdf:li>Male</rdf:li>
            <rdf:li>Man</rdf:li>
            <rdf:li>Profile</rdf:li>
          </rdf:Bag>
        </dc:subject>
      </cc:Work>
      <cc:License rdf:about="http://creativecommons.org/licenses/publicdomain/">
        <cc:permits rdf:resource="http://creativecommons.org/ns#Reproduction" />
        <cc:permits rdf:resource="http://creativecommons.org/ns#Distribution" />
        <cc:permits rdf:resource="http://creativecommons.org/ns#DerivativeWorks" />
      </cc:License>
    </rdf:RDF>
  </metadata>
</svg>